Coordinates
version=1
nRows=24
nColumns=24
inDegrees=yes

Units are S.I. units (second, meters, Newtons, ...)
Angles are in degrees.

endheader
time	pelvis_tilt	pelvis_list	pelvis_rotation	pelvis_tx	pelvis_ty	pelvis_tz	hip_flexion_r	hip_adduction_r	hip_rotation_r	knee_angle_r	ankle_angle_r	subtalar_angle_r	mtp_angle_r	hip_flexion_l	hip_adduction_l	hip_rotation_l	knee_angle_l	ankle_angle_l	subtalar_angle_l	mtp_angle_l	lumbar_extension	lumbar_bending	lumbar_rotation
      1.61466667	     -0.90689261	      7.36827809	     -1.96659609	      0.53810354	      0.99539780	      0.26540847	     22.63786793	     -8.66625565	      2.44135687	    -63.43710728	      5.36253281	    -13.26206706	      1.92883645	      5.21056914	     13.62600532	      1.21785777	     -7.75865265	      2.13595760	    -14.04058853	     -1.76065233	      0.73475426	     -5.19686398	      3.15398893
      1.61883333	     -0.82826931	      7.26755208	     -1.83073862	      0.54275260	      0.99577535	      0.26517260	     23.04703371	     -8.52859863	      2.40625979	    -62.78114908	      5.80787453	    -13.35225761	      1.77032578	      4.66535550	     13.55485717	      1.46115605	     -7.50885509	      2.26728958	    -14.04213197	     -1.81401212	      0.57975551	     -5.10211075	      3.02742436
      1.62300000	     -0.76284036	      7.16766307	     -1.67214362	      0.54741508	      0.99612285	      0.26490906	     23.44539659	     -8.40511043	      2.33954558	    -62.07254628	      6.16356388	    -13.40028891	      1.59341799	      4.11908267	     13.48465373	      1.76849290	     -7.23081263	      2.32200816	    -14.13818228	     -1.87288386	      0.45197051	     -5.00114377	      2.81968055
      1.62716667	     -0.72419268	      7.05199341	     -1.49694291	      0.55205345	      0.99642006	      0.26465580	     23.84921069	     -8.26267943	      2.26082627	    -61.31449626	      6.48897378	    -13.43904743	      1.50257148	      3.63216875	     13.38904964	      2.03564822	     -7.01315944	      2.39394127	    -14.15047409	     -1.90067949	      0.35745460	     -4.89441134	      2.70990317
      1.63133333	     -0.61393815	      6.96853923	     -1.35231720	      0.55673585	      0.99677048	      0.26440456	     24.17252864	     -8.16404225	      2.19224835	    -60.53462582	      6.74874598	    -13.50394012	      1.31706911	      3.01734196	     13.33106795	      2.35911146	     -6.68827685	      2.43000657	    -14.29685868	     -1.95757587	      0.17244211	     -4.81052612	      2.42513613
      1.63550000	     -0.57259928	      6.88522464	     -1.17049909	      0.56138387	      0.99698809	      0.26411340	     24.55418600	     -8.07731129	      2.08948907	    -59.72542265	      6.99045828	    -13.51273825	      0.86404061	      2.49501835	     13.26939531	      2.71414645	     -6.39788149	      2.39748654	    -14.47894823	     -2.09327556	      0.08379890	     -4.72856446	      2.17854505
      1.63966667	     -0.53960039	      6.79840689	     -1.00844496	      0.56598506	      0.99714308	      0.26390149	     24.94040535	     -7.96353842	      2.02498505	    -58.89276496	      7.23524624	    -13.56322755	      0.77896260	      2.03321283	     13.18989007	      2.94593527	     -6.20698241	      2.56600690	    -14.43893127	     -2.11245998	     -0.02163796	     -4.65012282	      2.10310898
      1.64383333	     -0.46365346	      6.72562076	     -0.85843672	      0.57063169	      0.99733214	      0.26367840	     25.26425516	     -7.87470694	      1.95272011	    -58.02497254	      7.39407031	    -13.64815497	      0.59388957	      1.48211565	     13.12595002	      3.22707113	     -5.92657798	      2.64582997	    -14.51175699	     -2.15882270	     -0.16609488	     -4.58354191	      1.83042671
      1.64800000	     -0.40979102	      6.64836504	     -0.69557232	      0.57525909	      0.99746518	      0.26345558	     25.59491628	     -7.78434153	      1.86542555	    -57.12610136	      7.55063449	    -13.70174465	      0.40605512	      0.97313416	     13.05197253	      3.50260628	     -5.68246852	      2.73563981	    -14.56422239	     -2.20271362	     -0.28540139	     -4.51170007	      1.63123417
      1.65216667	     -0.40787231	      6.57575457	     -0.51602323	      0.57986117	      0.99750005	      0.26322723	     25.96791528	     -7.70102242	      1.77254478	    -56.20252181	      7.69860534	    -13.74122793	      0.30937501	      0.54916519	     12.97645980	      3.74955255	     -5.49630099	      2.84644148	    -14.54241446	     -2.22122932	     -0.34082823	     -4.44340309	      1.52222732
      1.65633333	     -0.33454309	      6.52370542	     -0.37276348	      0.58449411	      0.99759378	      0.26303534	     26.25888525	     -7.63573479	      1.69615995	    -55.25965584	      7.78231982	    -13.82150032	      0.11996852	      0.00915437	     12.92080703	      4.01065375	     -5.22449134	      2.93404108	    -14.60285571	     -2.25991684	     -0.48874215	     -4.40184877	      1.24611471
      1.66050000	     -0.37359506	      6.49432696	     -0.22461365	      0.58908348	      0.99746702	      0.26285172	     26.67690723	     -7.58668299	      1.64396740	    -54.32017418	      7.90191288	    -13.83547606	      0.07646164	     -0.37040624	     12.88326385	      4.21856951	     -5.02424193	      3.06278151	    -14.52366780	     -2.26416025	     -0.48395568	     -4.38165009	      1.19687147
      1.66466667	     -0.31005589	      6.41190854	     -0.03739572	      0.59368604	      0.99752858	      0.26262472	     26.92525361	     -7.51249947	      1.49912644	    -53.29974749	      7.96169119	    -13.89010686	     -0.03343873	     -0.85977578	     12.78661829	      4.47654654	     -4.84289071	      3.19220002	    -14.54632022	     -2.28201752	     -0.64182512	     -4.30732388	      0.97900355
      1.66883333	     -0.26634204	      6.38562900	      0.09028195	      0.59830517	      0.99749301	      0.26246680	     27.21354699	     -7.46587149	      1.44518492	    -52.29185906	      8.00110437	    -13.95696651	     -0.23651464	     -1.35867951	     12.74751890	      4.72286713	     -4.58284268	      3.28172744	    -14.58694642	     -2.31828485	     -0.74682058	     -4.28802854	      0.67176949
      1.67300000	     -0.29513007	      6.34153905	      0.25418552	      0.60288758	      0.99732389	      0.26227555	     27.56184015	     -7.41777614	      1.34552226	    -51.26395787	      8.07329778	    -13.95833047	     -0.33460389	     -1.73300813	     12.68499162	      4.93533774	     -4.41993782	      3.42182899	    -14.53830365	     -2.33207608	     -0.77099449	     -4.24967746	      0.57609661
      1.67716667	     -0.29153898	      6.31972236	      0.39092442	      0.60748301	      0.99716545	      0.26212414	     27.87086146	     -7.38543536	      1.26731519	    -50.22431601	      8.10867473	    -13.95831561	     -0.45323883	     -2.16025408	     12.64260688	      5.13887979	     -4.21543088	      3.55858317	    -14.49735253	     -2.34967898	     -0.84157693	     -4.24442220	      0.39630113
      1.68133333	     -0.27068287	      6.30220340	      0.50918563	      0.61208398	      0.99701104	      0.26199345	     28.14507099	     -7.34819524	      1.21059479	    -49.15764512	      8.13456319	    -13.95352684	     -0.63697758	     -2.60781529	     12.60335242	      5.33418820	     -4.00653664	      3.69059506	    -14.46083861	     -2.38009161	     -0.92340635	     -4.23162158	      0.15601034
      1.68550000	     -0.34375664	      6.30592893	      0.62366217	      0.61667960	      0.99667541	      0.26188094	     28.52854255	     -7.32904644	      1.16731690	    -48.10890314	      8.21416505	    -13.92753433	     -0.67641858	     -2.94449175	     12.58448196	      5.50261864	     -3.81189911	      3.83340747	    -14.36868254	     -2.38284066	     -0.89070743	     -4.25611838	      0.11325225
      1.68966667	     -0.31608689	      6.27111221	      0.75327566	      0.62129628	      0.99650965	      0.26175272	     28.75048996	     -7.28889779	      1.05960716	    -46.98073115	      8.20158471	    -13.84946540	     -0.85743229	     -3.38695618	     12.52023873	      5.67650853	     -3.63222417	      3.98449322	    -14.32238626	     -2.41655209	     -0.98289970	     -4.22295631	     -0.16417260
      1.69383333	     -0.34805068	      6.26788575	      0.87740741	      0.62588668	      0.99618880	      0.26163165	     29.04727686	     -7.27599874	      0.97860893	    -45.87957455	      8.28294885	    -13.72296418	     -1.19992938	     -3.75999189	     12.48924384	      5.85600201	     -3.45771659	      4.11171587	    -14.24663949	     -2.49203156	     -1.01249771	     -4.22681143	     -0.38143420
      1.69800000	     -0.42369092	      6.28472425	      0.95671834	      0.63047631	      0.99577058	      0.26159113	     29.39711132	     -7.25314758	      0.96412609	    -44.77678113	      8.32624070	    -13.65176532	     -1.22893054	     -4.08649342	     12.48022669	      6.00065663	     -3.27407864	      4.29598340	    -14.16757009	     -2.49413662	     -0.98347176	     -4.26967691	     -0.39525539
      1.70216667	     -0.44547578	      6.25135427	      1.06977365	      0.63510230	      0.99546100	      0.26149220	     29.63205527	     -7.21191615	      0.85300685	    -43.59555982	      8.30592916	    -13.46969409	     -1.28717162	     -4.45527376	     12.41448350	      6.12563786	     -3.13318502	      4.47083650	    -14.09290996	     -2.50779888	     -1.01614124	     -4.23734284	     -0.50650383
      1.70633333	     -0.49753891	      6.25974913	      1.15734312	      0.63973282	      0.99504527	      0.26143084	     29.91006922	     -7.19791958	      0.79044839	    -42.43809030	      8.33971835	    -13.27298557	     -1.33438006	     -4.80419686	     12.39321165	      6.26157002	     -2.96332289	      4.64003820	    -13.99908008	     -2.52211050	     -1.00563649	     -4.24531323	     -0.62761674
      1.71050000	     -0.55101990	      6.26237230	      1.23558897	      0.64435311	      0.99459649	      0.26139685	     30.17723654	     -7.17377719	      0.72831358	    -41.26344544	      8.36795427	    -13.01931651	     -1.38229612	     -5.14700151	     12.36394225	      6.38248146	     -2.79887690	      4.81075649	    -13.90400985	     -2.54405987	     -1.01650123	     -4.26694039	     -0.76917437
